<svg xmlns="http://www.w3.org/2000/svg" width="794" height="438" viewBox="0 0 794 438"><defs><style>.cls-1{fill:#6a77a5;}.cls-2{fill:#2d3551;}.cls-10,.cls-12,.cls-13,.cls-14,.cls-16,.cls-17,.cls-3,.cls-4,.cls-6,.cls-8{fill:none;stroke-miterlimit:10;}.cls-3,.cls-4{stroke:#2d3551;}.cls-3{stroke-width:5.46px;}.cls-4{stroke-width:1.09px;}.cls-5{fill:#4d567f;}.cls-10,.cls-12,.cls-16,.cls-6,.cls-8{stroke:#8ebcf4;}.cls-10,.cls-16,.cls-17,.cls-6,.cls-8{stroke-width:0.68px;}.cls-6{stroke-dasharray:1.35;}.cls-7{fill:#808bb1;}.cls-8{stroke-dasharray:3.38;}.cls-9{fill:#343d67;}.cls-11{opacity:0.21;}.cls-12{stroke-width:0.63px;stroke-dasharray:1.26;}.cls-13,.cls-14{stroke:#6a77a5;}.cls-13{stroke-width:1.39px;}.cls-14{stroke-width:1.4px;}.cls-15{fill:#1f2944;}.cls-16{stroke-dasharray:6.26 6.26;}.cls-17{stroke:#1f2944;}</style></defs><title>city-02</title><g id="_1" data-name="1"><polygon class="cls-1" points="477.37 385 489.39 134.6 499.77 134.6 511.25 385 477.37 385"/><polygon class="cls-2" points="494.31 134.6 494.31 385 511.25 385 499.77 134.6 494.31 134.6"/><rect class="cls-2" x="485.02" y="129.69" width="19.12" height="4.92"/><line class="cls-3" x1="494.31" y1="90.52" x2="494.31" y2="58.25"/><line class="cls-4" x1="494.31" y1="58.25" x2="494.31" y2="7.98"/><path class="cls-1" d="M524.69,104.18H463.93a21,21,0,0,1,19.66-13.66H505A21,21,0,0,1,524.69,104.18Z"/><path class="cls-1" d="M462.62,110V94.54a4,4,0,0,1,4.07-4h54.62a4,4,0,0,1,4.07,4V110Z"/><path class="cls-1" d="M524.89,115.48A21,21,0,0,1,505,129.69H483.59a21,21,0,0,1-19.86-14.21Z"/><path class="cls-2" d="M526,106.85v1.63a22.08,22.08,0,0,1-1.11,7H463.73a22.08,22.08,0,0,1-1.11-7v-1.63a22.8,22.8,0,0,1,1.31-7.73h60.76A22.8,22.8,0,0,1,526,106.85Z"/><rect class="cls-5" x="461.28" y="187.54" width="68.12" height="198.57"/><line class="cls-6" x1="466.97" y1="193.56" x2="466.97" y2="341.58"/><line class="cls-6" x1="475.77" y1="193.56" x2="475.77" y2="341.58"/><line class="cls-6" x1="482.99" y1="193.56" x2="482.99" y2="341.58"/><line class="cls-6" x1="491.79" y1="193.56" x2="491.79" y2="341.58"/><line class="cls-6" x1="499.28" y1="193.56" x2="499.28" y2="341.58"/><line class="cls-6" x1="508.08" y1="193.56" x2="508.08" y2="341.58"/><line class="cls-6" x1="514.91" y1="193.56" x2="514.91" y2="341.58"/><line class="cls-6" x1="523.71" y1="193.56" x2="523.71" y2="341.58"/><rect class="cls-2" x="44.19" y="326.44" width="449.01" height="10.85"/><path class="cls-2" d="M169.14,429.67h-2.06v-2.25a1.37,1.37,0,0,0-1.37-1.37h-3.35V229h-4.45v197h-3.35a1.37,1.37,0,0,0-1.38,1.37v2.25h-2.05a2.23,2.23,0,0,0-2.23,2.23V441h22.47V431.9A2.23,2.23,0,0,0,169.14,429.67Z"/><rect class="cls-2" x="35.32" y="281.7" width="140.6" height="3.1" transform="translate(-156.73 133.06) rotate(-39.76)"/><rect class="cls-2" x="49.5" y="288.83" width="124.56" height="3.1" transform="translate(-159.89 138.69) rotate(-39.77)"/><rect class="cls-2" x="65.87" y="295.18" width="106.05" height="3.1" transform="translate(-162.31 144.73) rotate(-39.77)"/><rect class="cls-2" x="83.73" y="300.99" width="85.86" height="3.1" transform="translate(-164.23 151.03) rotate(-39.77)"/><rect class="cls-2" x="99.89" y="307.4" width="67.59" height="3.1" transform="translate(-166.71 157.01) rotate(-39.77)"/><rect class="cls-2" x="116.81" y="313.55" width="48.45" height="3.1" transform="translate(-168.93 163.12) rotate(-39.77)"/><rect class="cls-2" x="134" y="319.59" width="29.01" height="3.1" transform="translate(-171.08 169.33) rotate(-39.77)"/><rect class="cls-2" x="213.09" y="212.95" width="3.1" height="140.59" transform="translate(-140.38 267.13) rotate(-50.25)"/><rect class="cls-2" x="206.93" y="228.1" width="3.1" height="124.56" transform="translate(-148.09 264.97) rotate(-50.25)"/><rect class="cls-2" x="199.82" y="243.7" width="3.1" height="106.05" transform="translate(-155.53 261.79) rotate(-50.25)"/><rect class="cls-2" x="192.06" y="259.6" width="3.1" height="85.86" transform="translate(-162.79 257.92) rotate(-50.25)"/><rect class="cls-2" x="185.03" y="275.16" width="3.1" height="67.59" transform="translate(-170.26 254.83) rotate(-50.25)"/><rect class="cls-2" x="177.68" y="290.87" width="3.1" height="48.45" transform="translate(-177.63 251.39) rotate(-50.25)"/><rect class="cls-2" x="170.2" y="306.64" width="3.1" height="29.01" transform="translate(-184.98 247.82) rotate(-50.25)"/><path class="cls-2" d="M345.25,429.67H343.2v-2.25a1.37,1.37,0,0,0-1.38-1.37h-3.35V229H334v197h-3.35a1.37,1.37,0,0,0-1.37,1.37v2.25h-2.06A2.23,2.23,0,0,0,325,431.9V441h22.48V431.9A2.23,2.23,0,0,0,345.25,429.67Z"/><rect class="cls-2" x="211.44" y="281.7" width="140.59" height="3.1" transform="translate(-116.01 245.77) rotate(-39.77)"/><rect class="cls-2" x="225.62" y="288.83" width="124.56" height="3.1" transform="translate(-119.15 251.43) rotate(-39.78)"/><rect class="cls-2" x="241.99" y="295.18" width="106.05" height="3.1" transform="translate(-121.56 257.39) rotate(-39.77)"/><rect class="cls-2" x="259.84" y="300.99" width="85.86" height="3.1" transform="translate(-123.48 263.69) rotate(-39.77)"/><rect class="cls-2" x="276" y="307.4" width="67.59" height="3.1" transform="translate(-125.94 269.48) rotate(-39.75)"/><rect class="cls-2" x="292.93" y="313.55" width="48.45" height="3.1" transform="translate(-128.2 276) rotate(-39.8)"/><rect class="cls-2" x="310.12" y="319.59" width="29.01" height="3.1" transform="translate(-130.31 281.78) rotate(-39.75)"/><rect class="cls-2" x="389.21" y="212.95" width="3.1" height="140.59" transform="translate(-76.89 402.52) rotate(-50.25)"/><rect class="cls-2" x="383.05" y="228.1" width="3.1" height="124.56" transform="translate(-84.6 400.36) rotate(-50.25)"/><rect class="cls-2" x="375.93" y="243.7" width="3.1" height="106.05" transform="translate(-92.04 397.19) rotate(-50.25)"/><rect class="cls-2" x="368.17" y="259.6" width="3.1" height="85.86" transform="translate(-99.3 393.31) rotate(-50.25)"/><rect class="cls-2" x="361.15" y="275.16" width="3.1" height="67.59" transform="translate(-106.77 390.22) rotate(-50.25)"/><rect class="cls-2" x="353.79" y="290.87" width="3.1" height="48.45" transform="translate(-114.14 386.79) rotate(-50.25)"/><rect class="cls-2" x="346.32" y="306.64" width="3.1" height="29.01" transform="translate(-121.48 383.22) rotate(-50.25)"/><rect class="cls-2" x="155.84" y="229" width="8.32" height="197"/><rect class="cls-2" x="331.84" y="229" width="8.32" height="197"/></g><g id="_3" data-name="3"><rect class="cls-7" x="295.37" y="256.14" width="61.53" height="127.6"/><rect class="cls-7" x="326.13" y="315.53" width="61.53" height="68.21"/></g><g id="_4" data-name="4"><rect class="cls-5" x="269.8" y="270.44" width="512.75" height="170"/><rect class="cls-5" x="674.99" y="99.92" width="107.55" height="161.49"/><line class="cls-8" x1="682.75" y1="109.61" x2="776.26" y2="109.61"/><line class="cls-8" x1="682.75" y1="122.93" x2="776.26" y2="122.93"/><line class="cls-8" x1="682.75" y1="135" x2="776.26" y2="135"/><line class="cls-8" x1="682.75" y1="148.32" x2="776.26" y2="148.32"/><line class="cls-8" x1="682.75" y1="161.72" x2="776.26" y2="161.72"/><line class="cls-8" x1="682.75" y1="175.04" x2="776.26" y2="175.04"/><line class="cls-8" x1="682.75" y1="186.9" x2="776.26" y2="186.9"/><line class="cls-8" x1="682.75" y1="200.22" x2="776.26" y2="200.22"/><line class="cls-8" x1="682.75" y1="211.37" x2="776.26" y2="211.37"/><line class="cls-8" x1="682.75" y1="224.69" x2="776.26" y2="224.69"/><rect class="cls-9" x="616.18" y="299.41" width="98.22" height="61.03"/><rect class="cls-9" x="298.88" y="299.41" width="98.22" height="140.03"/><rect class="cls-9" x="436.01" y="272.69" width="105.7" height="167.53"/><line class="cls-10" x1="458.58" y1="282.15" x2="530.97" y2="282.15"/><line class="cls-10" x1="458.58" y1="291.5" x2="530.97" y2="291.5"/><line class="cls-10" x1="458.58" y1="300.02" x2="530.97" y2="300.02"/><line class="cls-10" x1="458.58" y1="309.37" x2="530.97" y2="309.37"/></g><g id="_5" data-name="5"><g id="_Group_" data-name="&lt;Group&gt;"><path class="cls-2" d="M796.77,441.93c1.23,0,2.47,0,3.71,0a4,4,0,0,0,2.72-.85V241.15c-.35-.28-.73-.63-1.16-.6-2.78.18-3.58-1.28-3.42-3.6a5.88,5.88,0,0,0,0-1.11c-.33-3-1-3.8-3.92-3.9-3.53-.12-7.06-.06-10.6-.06-5.08,0-6.36-.45-6.1,5.73.11,2.42-3.14,1.9-3.23.08a2.78,2.78,0,0,0-2.65-2.82c-2.12-.3-2.72-1.45-2.48-3.5.48-4.23.41-4.24-3.93-4.9s-5.68-2.22-6.38-6.51a58.46,58.46,0,0,1-.47-9.25c-.22-4.13,1-8,2.28-11.81.58-1.72,1.69-3.31,1.43-5.26-.46-.64-1-.26-1.47-.06-3.16,2.07-6.08,4.48-9.49,6.84.31-2.21,1-3.94,1.24-5.75.11-.82.6-1.91-.4-2.39s-1.64.41-2.26,1c-2.27,2.15-4.39,4.44-6.8,6.7,0-1.47.07-2.71,0-3.94s.37-2.61-.86-3.11-2.26.7-3.12,1.57a53.25,53.25,0,0,1-6,5.19c-.13-1.43,0-2.64-.09-3.84-.06-.94.15-2.12-1-2.55s-1.79.52-2.48,1.18a32,32,0,0,1-6,5.11c-.2-1.85,0-3.53-.12-5.2,0-.94.2-2.18-.91-2.54-.88-.28-1.54.66-2.2,1.24a55.23,55.23,0,0,1-12.83,8.82,11.55,11.55,0,0,1-10.89-.27,62.85,62.85,0,0,1-10-7c-1-.79-1.87-2.48-3.24-1.84s-.46,2.38-.57,3.63c-.08.91.39,1.92-.5,2.83a61.22,61.22,0,0,1-6.91-6.14c-.63-.6-1.34-1.34-2.31-.87s-.76,1.32-.82,2.11c-.16,1.85.21,3.74-.24,5.72a46.39,46.39,0,0,1-6.75-6c-.67-.63-1.38-1.71-2.43-1.08-.83.49-.54,1.58-.44,2.46s.59,2.05-.07,3.08c-1.09-.2-1.58-1.12-2.26-1.76-1.87-1.76-3.56-3.69-5.53-5.33-.59-.5-1.2-1.23-2.08-.85S652,192,652,192.74c-.11,2,.06,4-.13,6.27a30.59,30.59,0,0,1-3-2.26,14,14,0,0,0-3.26-2.24c-.65-.25-1.37-.61-2,0s-.2,1.18.06,1.73c1.63,3.41,1.36,7.05,1.43,10.66a12.12,12.12,0,0,1-3.22,8.71,4.42,4.42,0,0,0-.9,3.66,99.82,99.82,0,0,1,.89,10.49c.06,3.39.31,3.6-2.41,2.72-6.29-2.05-12.69-3.72-19.13-5.22-7.2-1.68-14.37-3.6-21.83-3.85a7.43,7.43,0,0,0-4,.9c-1.85,1.17-1.93,2.8-1.19,4.63s1.52,3.38,2.24,5.09c1.54,3.65,1.56,3.65-2.54,3.65q-18.68,0-37.34,0c-4,0-4.18.19-4.55,4-.15,1.49-.59,2.5-2.22,2.44-2.94-.1-5.88-.23-8.82-.13-1.45,0-2.52-.27-3-1.71a5,5,0,0,0-2.7-2.78c-3.13-1.64-6.12-3.52-9.18-5.28a10.39,10.39,0,0,0-5.3-1.38V440.39S713.62,441.93,796.77,441.93Z"/></g><g class="cls-11"><line class="cls-12" x1="539.97" y1="263.56" x2="539.97" y2="440.44"/><line class="cls-12" x1="560.28" y1="263.4" x2="560.28" y2="440.44"/><line class="cls-12" x1="580.59" y1="263.23" x2="580.59" y2="440.44"/><line class="cls-12" x1="600.91" y1="263.06" x2="600.91" y2="440.44"/><line class="cls-12" x1="621.22" y1="262.9" x2="621.22" y2="440.44"/><line class="cls-12" x1="641.53" y1="262.73" x2="641.53" y2="440.44"/><line class="cls-12" x1="661.84" y1="262.56" x2="661.84" y2="440.44"/><line class="cls-12" x1="682.15" y1="262.4" x2="682.15" y2="440.44"/><line class="cls-12" x1="702.46" y1="262.23" x2="702.46" y2="440.44"/><line class="cls-12" x1="722.78" y1="262.06" x2="722.78" y2="440.44"/><line class="cls-12" x1="743.09" y1="261.9" x2="743.09" y2="440.44"/><line class="cls-12" x1="763.4" y1="261.73" x2="763.4" y2="440.44"/><line class="cls-12" x1="783.71" y1="261.56" x2="783.71" y2="440.44"/></g></g><g id="_6" data-name="6"><circle class="cls-5" cx="62.58" cy="316.17" r="42.26" transform="translate(-259.4 301.65) rotate(-76.22)"/><circle class="cls-1" cx="28.63" cy="291.92" r="6.24"/><circle class="cls-1" cx="75.05" cy="289.84" r="6.24"/><circle class="cls-1" cx="61.19" cy="306.47" r="6.24"/><circle class="cls-1" cx="47.34" cy="323.1" r="6.24"/><circle class="cls-1" cx="33.48" cy="339.73" r="6.24"/><circle class="cls-1" cx="75.05" cy="321.71" r="6.24"/><circle class="cls-1" cx="63.56" cy="343.05" r="6.24"/><circle class="cls-1" cx="104.15" cy="321.71" r="6.24"/><circle class="cls-1" cx="48.72" cy="289.84" r="6.24"/><circle class="cls-1" cx="62.58" cy="271.83" r="6.24"/><circle class="cls-1" cx="21.01" cy="323.1" r="6.24"/><circle class="cls-1" cx="33.48" cy="309.24" r="6.24"/><circle class="cls-1" cx="90.29" cy="307.86" r="6.24"/><circle class="cls-1" cx="96.86" cy="288.98" r="6.24"/><polyline class="cls-13" points="63.27 272.52 61.89 305.78 48.03 322.41 34.17 339.03 63.9 342.98 75.05 321.71 90.16 307.69 97.91 289.15 75.74 290.54 49.41 289.15 28.63 291.92"/><line class="cls-13" x1="47.34" y1="323.63" x2="63.9" y2="342.98"/><polyline class="cls-13" points="33.48 309.24 62.58 306.47 91.68 309.24"/><polygon class="cls-14" points="103.9 325.09 89.48 310.9 74.13 292.75 61.56 274.61 46.91 292.06 31.56 311.6 19 325.56 45.28 326.25 74.83 324.16 103.9 325.09"/><polyline class="cls-13" points="49.41 289.15 63.27 307.16 75.74 323.79 92.83 343.42"/><polygon class="cls-1" points="63.62 370.47 8.93 370.47 8.94 339.5 63.62 347.24 63.62 370.47"/><polygon class="cls-1" points="63.45 368.35 108.18 368.35 108.18 339.28 63.45 346.55 63.45 368.35"/><rect class="cls-1" x="6.58" y="361.8" width="116.33" height="77.22"/><rect class="cls-5" x="13.71" y="353.23" width="10.68" height="85.79"/><rect class="cls-5" x="36.41" y="353.23" width="10.68" height="85.79"/><rect class="cls-5" x="59.7" y="353.23" width="10.68" height="85.79"/><rect class="cls-5" x="83" y="353.23" width="10.68" height="85.79"/><rect class="cls-5" x="106.29" y="353.23" width="10.68" height="85.79"/><path class="cls-2" d="M787.11,301.71H744.47V269.33l-16.62,16.54-16.63-16.54v32.38H668.58s-.79,22.9,42.64,27.63c-2.37,4.74-6.32,16.59-.79,26.06v22.9h-6.32v8.64h47.47V378.3h-6.32V355.4c5.53-9.47,1.58-21.32-.79-26.06C787.9,324.61,787.11,301.71,787.11,301.71Z"/><g id="pnSJyp"><path class="cls-5" d="M715,307.26c1.37.67,2.64,1.28,3.91,1.88,1.54.73,1.57.74.85,2.31a32.67,32.67,0,0,1-1.57,3,.73.73,0,0,0,.19,1q3.09,3.09,6.16,6.19c.89.89,1.8,1.77,2.64,2.7.45.49.75.5,1.21,0,2.43-2.47,4.87-4.92,7.31-7.38a22.22,22.22,0,0,0,1.6-1.62,1.07,1.07,0,0,0,.11-.94c-.64-1.35-1.34-2.67-2.05-4-.29-.52-.06-.79.37-1,1.5-.73,3-1.44,4.51-2.16,0,0,.1,0,.26,0a3,3,0,0,1,.11.62c0,7.37,0,14.74,0,22.11,0,.75-.26,1-1,1q-11.65,0-23.3,0c-1.37,0-1.34,0-1.34-1.39,0-5.93,0-11.86,0-17.79Z"/><path class="cls-5" d="M740.65,298.3c0,.6,0,1.21,0,1.82.1,2.37.12,2.4-2,3.49-1.58.81-3.21,1.52-4.81,2.29-.52.25-.76,0-1-.43q-2.37-4.87-4.76-9.73a2,2,0,0,0-.29-.32c-.11.13-.22.2-.27.31q-2.38,4.9-4.76,9.83c-.23.47-.52.61-1.07.32-1.89-1-3.82-2-5.73-2.92a1.5,1.5,0,0,1-1-1.68c.1-1,0-2,0-3.16,3.25,2.59,6.35,2.82,9.1-.4a5.49,5.49,0,0,0-.09-6.93,5.35,5.35,0,0,0-4.35-2.14,7,7,0,0,0-4.66,1.91V279.08a9.41,9.41,0,0,1,.87.67q5.51,5.46,11,10.94c1,1,1,1,2,0L740,279.47c.11-.1.24-.18.53-.42.28,3.86.06,7.54.1,11.41a7.92,7.92,0,0,1-.83-.47,5.71,5.71,0,1,0-6.36,9.39,5.54,5.54,0,0,0,6.41-.78c.15-.13.32-.24.48-.36Z"/><path class="cls-5" d="M727.88,382.19c6.48,0,13,0,19.43,0,.52,0,.72.23.72.7,0,.95,0,1.89,0,2.83,0,.52-.22.78-.75.77H745.4l-36.66,0c-1,0-1.07,0-1-1,0-.81,0-1.62,0-2.44,0-.58.18-.78.77-.77h19.43Z"/><path class="cls-5" d="M711.17,314.69q0,4.1,0,8.18a.6.6,0,0,1-.67.68,5.79,5.79,0,0,1-1.1-.05c-2.44-.43-4.9-.83-7.33-1.32-1.1-.23-1.05-.31-.83-1.39.25-1.23.44-2.48.63-3.72q.86-5.38,1.68-10.78c.07-.49.35-.6.75-.6l6.21,0c.45,0,.63.2.63.69,0,2.77,0,5.55,0,8.33Z"/><path class="cls-5" d="M748.26,305.67c.94,0,1.88,0,2.83,0,.7,0,1,.2,1.11,1,.28,2,.67,3.91,1,5.87.17,1,.3,2,.46,3,.23,1.55.47,3.1.7,4.65,0,.16,0,.32.07.47.23,1.23.25,1.33-1,1.62-1.62.39-3.29.62-4.94.89-1,.16-2,.3-3,.37s-1-.1-.92-1a12,12,0,0,0,0-1.34c0-5,0-9.92,0-14.87,0-.6.3-.66.73-.66h3Z"/><path class="cls-5" d="M694.2,305.66h4.64c.8,0,.82.1.66.86-.29,1.35-.48,2.73-.7,4.09-.29,1.76-.56,3.52-.86,5.27-.25,1.5-.56,3-.8,4.48-.09.55-.39.57-.78.42-3.12-1.18-6.25-2.35-9.36-3.58-1-.37-1-.62-.7-1.58.52-1.88,1-3.79,1.45-5.69.33-1.32.65-2.64,1-3.94.05-.17.45-.31.69-.31C691.06,305.65,692.63,305.67,694.2,305.66Z"/><path class="cls-5" d="M761.51,305.66c1.54,0,3.09,0,4.63,0a.72.72,0,0,1,.86.66c.61,2.42,1.27,4.84,1.9,7.26.2.76.35,1.53.55,2.28a1,1,0,0,1-.7,1.35L760,320.49l-.29.12c-.91.42-1,.34-1.18-.62s-.35-2.06-.53-3.09c-.46-2.62-.91-5.25-1.38-7.87-.17-.95-.38-1.89-.56-2.83-.12-.64.37-.51.7-.52h4.72Z"/><path class="cls-5" d="M727.81,375.76c-2.68-6.27-5.27-12.32-7.93-18.52h1.3l13.84-.06c.54,0,.75.15.54.68-.42,1-.84,2.09-1.28,3.12l-3.6,8.36c-.79,1.82-1.57,3.65-2.36,5.48A9.11,9.11,0,0,1,727.81,375.76Z"/><path class="cls-5" d="M742.17,352.29c-1.13-.81-2-1.44-2.9-2.09-1.67-1.25-3.33-2.54-5-3.77-.55-.41-.92-.81-.76-1.56a2.67,2.67,0,0,0,0-1.09,2,2,0,0,1,1-2.09c2.34-1.73,4.64-3.5,7-5.26.42-.32.65-.23.78.27a27.92,27.92,0,0,1,.88,3.64,29.44,29.44,0,0,1-.19,8.69C742.73,350,742.46,351,742.17,352.29Z"/><path class="cls-5" d="M713.52,336.07a6.55,6.55,0,0,1,.69.4c2.29,1.71,4.57,3.43,6.86,5.13a2.5,2.5,0,0,1,1.18,2.13,3.23,3.23,0,0,1-1.5,3.26c-2.25,1.48-4.35,3.19-6.52,4.81-.46.35-.67.27-.86-.32a27.52,27.52,0,0,1-.58-12.14C712.94,338.28,713.26,337.24,713.52,336.07Z"/><path class="cls-5" d="M727.79,304.45c.49.89.9,1.57,1.26,2.29,1.15,2.31,2.31,4.63,3.42,7a.93.93,0,0,1-.08.86c-1.32,1.39-2.68,2.73-4,4.08-.31.32-.57.49-1,.07-1.3-1.36-2.65-2.69-4-4a.76.76,0,0,1-.21-1q2.21-4.38,4.37-8.78Z"/><path class="cls-5" d="M682.35,314.66c-3.36-2.42-6.32-4.85-7.56-8.89.26,0,.45-.09.64-.1,2.82,0,5.65,0,8.47,0,.59,0,.69.27.59.73-.17.72-.35,1.43-.53,2.13Z"/><path class="cls-5" d="M773.41,314.56c-.23-.62-.44-1.07-.56-1.54-.56-2.2-1.08-4.4-1.63-6.6-.14-.57,0-.78.65-.77,2.67.05,5.33,0,8,0h1C779.63,309.76,776.82,312.3,773.41,314.56Z"/><path class="cls-5" d="M715.25,357.21a5.87,5.87,0,0,1,.55.85q2.24,5.22,4.46,10.45c.11.24.35.44.37.68s0,.67-.2.79c-1.51,1.07-3.06,2.1-4.61,3.12-.18.12-.48.22-.62.14s-.17-.39-.17-.6q0-7.39,0-14.78a5.41,5.41,0,0,1,.07-.58Z"/><path class="cls-5" d="M740.53,357.29a3.38,3.38,0,0,1,.14.69q0,6.11,0,12.2c0,.87,0,1.73,0,2.6,0,.54-.23.7-.68.41-1.57-1-3.14-2.09-4.68-3.19a.9.9,0,0,1-.23-.83c1.19-2.79,2.42-5.56,3.64-8.33.52-1.18,1-2.37,1.55-3.56Z"/><path class="cls-5" d="M728,335.52a22.21,22.21,0,0,1,1.06,3.2,20.25,20.25,0,0,1,.35,6.72c-.26,1.62-.63,3.22-1,4.82a2.09,2.09,0,0,1-.26.57c-.27.51-.57.46-.75,0a14.43,14.43,0,0,1-.81-2.54,23.51,23.51,0,0,1,.53-11.48c.13-.42.32-.81.48-1.21Z"/><path class="cls-5" d="M724.58,379.12h-2.13c-2.26,0-4.51,0-6.77-.06-.21,0-.41-.21-.62-.32a2.29,2.29,0,0,1,.39-.51c1.43-1,2.87-1.93,4.3-2.9.7-.46,1.37-1,2.1-1.37a.88.88,0,0,1,.81.19c.66,1.45,1.25,2.93,1.86,4.41A2.32,2.32,0,0,1,724.58,379.12Z"/><path class="cls-5" d="M731,378.89l1.61-3.81a5.32,5.32,0,0,0,.21-.5c.26-.88.57-1,1.32-.46,2,1.38,4.08,2.73,6.11,4.11a.83.83,0,0,1,.31.55c0,.08-.3.29-.46.29q-4.35,0-8.7,0C731.31,379.05,731.22,379,731,378.89Z"/><path class="cls-5" d="M734.46,294.34a1.69,1.69,0,1,1,3.37,0,2,2,0,0,1-1.71,1.78A2.07,2.07,0,0,1,734.46,294.34Z"/><path class="cls-5" d="M719.44,292.6a2,2,0,0,1,1.79,1.76,2,2,0,0,1-1.77,1.72,2.1,2.1,0,0,1-1.6-1.79A2,2,0,0,1,719.44,292.6Z"/><path class="cls-5" d="M736,353.2h-2.46c-.42,0-.84,0-1.26,0-.59,0-.73-.28-.47-.81s.37-1,.63-1.41c.1-.17.51-.39.59-.33,1,.67,1.89,1.39,2.82,2.11C736,352.83,736,353,736,353.2Z"/><path class="cls-5" d="M719.6,353.06a3,3,0,0,1,.46-.57c.7-.55,1.43-1.05,2.13-1.59s.82-.45,1.06.32a11.75,11.75,0,0,0,.57,1.19c.15.35.27.78-.31.8-1.21.05-2.41,0-3.61,0C719.83,353.22,719.77,353.16,719.6,353.06Z"/><path class="cls-5" d="M736.13,335.35c-1,.73-1.9,1.45-2.86,2.13-.06,0-.39-.14-.44-.27a9.5,9.5,0,0,1-.43-1.56c0-.16.2-.52.32-.53,1,0,2.08,0,3.12,0C735.9,335.1,736,335.19,736.13,335.35Z"/><path class="cls-5" d="M719.66,335.11c1.11,0,2.22,0,3.33,0,.09,0,.26.46.23.68a5.37,5.37,0,0,1-.38,1.34c-.06.14-.4.33-.47.28-.94-.67-1.86-1.39-2.79-2.09Z"/></g></g><g id="_7" data-name="7"><polygon class="cls-15" points="439.74 326.62 427.48 308.02 411.99 308.02 411.99 334.22 411.99 345.91 411.99 444.74 469.4 444.74 469.4 334.22 439.74 326.62"/><rect class="cls-15" x="249.35" y="304.9" width="76.28" height="135.46"/><line class="cls-10" x1="255.92" y1="310.88" x2="259.3" y2="310.88"/><line class="cls-16" x1="265.56" y1="310.88" x2="312.55" y2="310.88"/><line class="cls-10" x1="315.68" y1="310.88" x2="319.06" y2="310.88"/><line class="cls-10" x1="255.92" y1="319.27" x2="259.3" y2="319.27"/><line class="cls-16" x1="265.56" y1="319.27" x2="312.55" y2="319.27"/><line class="cls-10" x1="315.68" y1="319.27" x2="319.06" y2="319.27"/><line class="cls-10" x1="255.92" y1="327.67" x2="259.3" y2="327.67"/><line class="cls-16" x1="265.56" y1="327.67" x2="312.55" y2="327.67"/><line class="cls-10" x1="315.68" y1="327.67" x2="319.06" y2="327.67"/><line class="cls-10" x1="255.92" y1="335.53" x2="259.3" y2="335.53"/><line class="cls-16" x1="265.56" y1="335.53" x2="312.55" y2="335.53"/><line class="cls-10" x1="315.68" y1="335.53" x2="319.06" y2="335.53"/><line class="cls-10" x1="255.92" y1="343.92" x2="259.3" y2="343.92"/><line class="cls-16" x1="265.56" y1="343.92" x2="312.55" y2="343.92"/><line class="cls-10" x1="315.68" y1="343.92" x2="319.06" y2="343.92"/><line class="cls-10" x1="255.92" y1="352.32" x2="259.3" y2="352.32"/><line class="cls-16" x1="265.56" y1="352.32" x2="312.55" y2="352.32"/><line class="cls-10" x1="315.68" y1="352.32" x2="319.06" y2="352.32"/><line class="cls-10" x1="255.92" y1="360.31" x2="259.3" y2="360.31"/><line class="cls-16" x1="265.56" y1="360.31" x2="312.55" y2="360.31"/><line class="cls-10" x1="315.68" y1="360.31" x2="319.06" y2="360.31"/><line class="cls-10" x1="255.92" y1="368.71" x2="259.3" y2="368.71"/><line class="cls-16" x1="265.56" y1="368.71" x2="312.55" y2="368.71"/><line class="cls-10" x1="315.68" y1="368.71" x2="319.06" y2="368.71"/><line class="cls-10" x1="255.92" y1="377.1" x2="259.3" y2="377.1"/><line class="cls-16" x1="265.56" y1="377.1" x2="312.55" y2="377.1"/><line class="cls-10" x1="315.68" y1="377.1" x2="319.06" y2="377.1"/><path class="cls-15" d="M249.35,304.9s11.65-21.71,38.14-21.71,38.14,21.71,38.14,21.71Z"/><line class="cls-17" x1="287.49" y1="304.9" x2="287.49" y2="256.14"/><rect class="cls-15" x="303.92" y="348.97" width="34.18" height="91.39"/></g></svg>